<?xml version="1.0" standalone="no"?><!DOCTYPE svg PUBLIC "-//W3C//DTD SVG 1.1//EN" "http://www.w3.org/Graphics/SVG/1.1/DTD/svg11.dtd"><svg t="1774418782927" class="icon" viewBox="0 0 1024 1024" version="1.1" xmlns="http://www.w3.org/2000/svg" p-id="4982" xmlns:xlink="http://www.w3.org/1999/xlink" width="200" height="200"><path d="M818.346667 470.613333a502.954667 502.954667 0 0 1-158.208-106.752 501.76 501.76 0 0 1-130.773334-229.376 17.877333 17.877333 0 0 0-34.688 0 502.528 502.528 0 0 1-130.816 229.376 503.296 503.296 0 0 1-229.376 130.816 17.877333 17.877333 0 0 0 0 34.688c24.32 6.101333 48 14.08 71.168 24.064a502.997333 502.997333 0 0 1 158.208 106.666667 501.76 501.76 0 0 1 130.816 229.461333 17.834667 17.834667 0 0 0 34.688 0c6.101333-24.32 14.08-48.042667 24.064-71.210666a502.997333 502.997333 0 0 1 106.666667-158.208 501.802667 501.802667 0 0 1 229.461333-130.773334 17.834667 17.834667 0 0 0 0-34.688 470.784 470.784 0 0 1-71.210666-24.106666z" p-id="4983"></path><path d="M818.346667 470.613333a502.954667 502.954667 0 0 1-158.208-106.752 501.76 501.76 0 0 1-130.773334-229.376 17.877333 17.877333 0 0 0-34.688 0 502.528 502.528 0 0 1-130.816 229.376 503.296 503.296 0 0 1-229.376 130.816 17.877333 17.877333 0 0 0 0 34.688c24.32 6.101333 48 14.08 71.168 24.064a502.997333 502.997333 0 0 1 158.208 106.666667 501.76 501.76 0 0 1 130.816 229.461333 17.834667 17.834667 0 0 0 34.688 0c6.101333-24.32 14.08-48.042667 24.064-71.210666a502.997333 502.997333 0 0 1 106.666667-158.208 501.802667 501.802667 0 0 1 229.461333-130.773334 17.834667 17.834667 0 0 0 0-34.688 470.784 470.784 0 0 1-71.210666-24.106666z" p-id="4984"></path><path d="M818.346667 470.613333a502.954667 502.954667 0 0 1-158.208-106.752 501.76 501.76 0 0 1-130.773334-229.376 17.877333 17.877333 0 0 0-34.688 0 502.528 502.528 0 0 1-130.816 229.376 503.296 503.296 0 0 1-229.376 130.816 17.877333 17.877333 0 0 0 0 34.688c24.32 6.101333 48 14.08 71.168 24.064a502.997333 502.997333 0 0 1 158.208 106.666667 501.76 501.76 0 0 1 130.816 229.461333 17.834667 17.834667 0 0 0 34.688 0c6.101333-24.32 14.08-48.042667 24.064-71.210666a502.997333 502.997333 0 0 1 106.666667-158.208 501.802667 501.802667 0 0 1 229.461333-130.773334 17.834667 17.834667 0 0 0 0-34.688 470.784 470.784 0 0 1-71.210666-24.106666z" p-id="4985"></path><path d="M818.346667 470.613333a502.954667 502.954667 0 0 1-158.208-106.752 501.76 501.76 0 0 1-130.773334-229.376 17.877333 17.877333 0 0 0-34.688 0 502.528 502.528 0 0 1-130.816 229.376 503.296 503.296 0 0 1-229.376 130.816 17.877333 17.877333 0 0 0 0 34.688c24.32 6.101333 48 14.08 71.168 24.064a502.997333 502.997333 0 0 1 158.208 106.666667 501.76 501.76 0 0 1 130.816 229.461333 17.834667 17.834667 0 0 0 34.688 0c6.101333-24.32 14.08-48.042667 24.064-71.210666a502.997333 502.997333 0 0 1 106.666667-158.208 501.802667 501.802667 0 0 1 229.461333-130.773334 17.834667 17.834667 0 0 0 0-34.688 470.784 470.784 0 0 1-71.210666-24.106666z" p-id="4986"></path></svg>