<?xml version="1.0" standalone="no"?><!DOCTYPE svg PUBLIC "-//W3C//DTD SVG 1.1//EN" "http://www.w3.org/Graphics/SVG/1.1/DTD/svg11.dtd"><svg t="1772268566665" class="icon" viewBox="0 0 1024 1024" version="1.1" xmlns="http://www.w3.org/2000/svg" p-id="1798" xmlns:xlink="http://www.w3.org/1999/xlink" width="200" height="200"><path d="M465.92 102.4c-36.25 0.87-65.997 8.602-92.16 15.36-20.429 5.325-41.165 9.42-61.44 15.36-5.12 1.485-19.251 5.734-38.502 6.707-3.021 0.154-7.22 0.359-10.599 0.154-24.217-1.434-38.707-26.112-53.299-37.581-13.312-10.496-37.837-18.74-87.04-5.12a508.672 508.672 0 0 0 21.146 33.229c19.507 28.16 28.62 35.635 31.027 50.483 3.43 21.043-11.469 39.22-14.592 43.622-19.303 27.341-25.805 145.767 10.035 488.346-5.734-65.638-19.866-270.746 49.203-294.298 4.301-1.484 13.824-4.403 47.565 7.578 96.512 34.304 171.469 107.366 243.66 136.5 8.602 3.48 24.73 9.369 43.726 6.092 22.988-3.942 37.939-19.302 45.619-27.392 85.965-90.726 107.827-123.546 150.528-134.81 9.216-2.457 28.16-8.55 49.92-4.352 58.368 11.264 102.707 87.655 115.61 192.308 2.252 18.33 46.694-232.704-90.061-390.144a373.233 373.233 0 0 0-39.732-39.424 205.338 205.338 0 0 0 7.015-36.967c2.406-24.678 3.225-79.872-12.903-84.531-23.398-6.758-81.868 93.082-119.45 99.635-6.502 1.127-12.697 0.82-12.697 0.82-18.483-0.871-30.976-10.753-39.219-15.924-8.755-5.53-24.627-8.806-56.32-15.36-27.085-5.632-53.35-11.11-87.04-10.291z" fill="#FFCC66" p-id="1799"></path><path d="M680.55 599.552c-28.876 15.104-76.748 18.893-112.844 9.216-21.146-6.093-27.802-5.478-39.936 2.509-7.68 5.632-31.335 12.749-52.173 15.872-30.003 5.069-43.623 4.045-67.584-3.43s-29.799-7.68-27.239-2.1c9.319 23.296 111.002 29.338 214.324 12.851 55.244-8.499 111.513-28.979 115.353-41.164 2.816-9.268-4.096-7.68-29.9 6.246z m69.684 138.342c-7.424 3.84-12.34 8.295-11.418 10.701 2.15 3.789 1.024 3.994-18.278 0.87-19.815-3.276-44.135 2.305-50.279 11.213-3.993 6.861-6.605 6.708-10.445 1.383-3.84-5.274-9.932-6.4-22.886-3.584-10.086 1.997-16.896 5.478-15.82 7.373 1.074 1.894-1.383 7.065-5.684 11.161-5.325 5.99-5.53 8.602-1.075 9.78 4.454 1.228 4.045 2.713-0.103 4.198-3.02 1.28-19.558 13.26-35.481 26.931-16.589 14.08-31.232 24.934-32.205 24.678s-0.46-2.252 2.355-4.659c2.15-2.048-3.072-2.406-11.52-0.512-22.579 4.967-54.17 0.103-75.878-11.673-15.719-8.55-23.91-9.677-44.954-6.4-35.225 4.71-42.496-5.735-13.312-21.146 22.375-11.93 21.402-14.336-4.659-8.192-10.086 1.997-19.456 3.174-21.3 2.15-6.04-3.225-6.604 6.708-0.511 11.52 2.56 2.304-0.41 1.485-7.424-1.996-10.189-5.428-50.176-6.759-93.696-2.765-13.056 1.229-50.893-8.039-49.818-11.981 0.666-2.458-4.3-7.526-10.905-12.544-7.22-4.608-17.408-15.872-22.836-25.344-10.7-17.254-21.555-20.224-20.121-6.042 0.921 4.506 3.174 7.783 5.58 6.81 2.868-0.82 2.407 2.765-0.563 7.834-2.97 5.017-2.713 9.881 0.256 10.7 2.97 0.82 4.506 4.916 3.43 8.91-2.406 8.908-0.46 9.42 15.77 6.4 12.237-1.998 12.237-1.998 0.205 3.225s-12.185 5.683-1.587 21.35c6.144 8.602 13.312 15.309 16.333 14.029 2.867-0.82 3.942 1.075 2.509 4.403-1.946 3.175 0.46 8.09 5.632 10.547s7.884 2.15 6.758-1.33c-0.666-3.38 1.382-7.066 4.915-8.244 5.12-1.28 4.455-4.608-0.614-11.315-7.475-9.472-7.373-9.984 1.997-5.274 7.475 3.635 8.038 7.475 3.686 19.559-3.277 8.14-3.584 17.05-1.178 19.865 6.554 7.117 51.252 26.163 49.87 21.555-0.922-2.355 3.327-4.403 9.164-4.403s9.011 1.946 7.014 3.482c-4.3 4.147 76.135 24.473 85.863 21.811 3.635-1.638 6.451-0.358 5.785 2.1-0.819 2.969 19.917 10.751 48.026 18.431 27.187 7.424 49.306 11.879 49.715 10.394 1.075-9.78 4.352-12.083 6.707-5.069 4.199 13.875 38.144 21.555 54.528 12.237 8.192-4.66 14.132-11.008 12.954-14.49-1.178-3.481 0.717-4.557 4.557-3.02 3.174 1.945 6.451-0.359 7.68-4.813 0.87-5.07 4.608-7.22 9.318-4.916 4.301 1.69 13.773 0.052 21.197-3.788 12.288-6.196 13.21-7.527 7.782-14.848-5.58-6.81-5.273-7.834 3.226-11.879 8.55-4.045 9.523-3.789 4.557 2.816-2.714 4.045-2.663 7.783 0.307 8.602 7.885 2.15 48.077-18.74 50.227-26.624 1.075-3.943 4.352-6.247 6.81-5.581 2.97 0.82 5.888-2.1 6.963-6.042 1.075-3.942 4.506-6.758 7.475-5.939 2.458 0.666 2.663 3.891-0.153 6.349-2.919 2.918 0.46 2.253 7.73-1.075 14.08-6.759 19.15-11.776 8.756-8.755-2.867 0.819-5.222-0.359-4.403-3.328 0.665-2.458 5.427-4.352 10.65-3.994 14.643 0.82-9.217-22.682-35.533-35.174-23.143-10.548-22.836-11.52 1.894-6.912 7.526 1.536 13.056 4.608 12.544 6.604-0.563 1.997 2.355 4.916 6.81 6.093 4.454 1.229 12.595 8.243 19.046 15.821l10.752 13.005 12.851-8.192c17.357-11.162 23.808-21.095 18.79-29.901-3.225-5.683-2.457-6.502 3.636-1.638 4.915 3.481 6.144 8.601 2.97 12.492-4.097 5.274-3.226 6.042 4.659 2.356 12.646-5.581 33.126-28.11 30.77-33.024-1.074-1.895-2.969-0.82-3.788 2.15-0.922 3.482-3.584 5.376-5.58 4.864-2.458-0.666-3.482-4.66-2.56-8.14 1.074-3.943 3.48-7.015 4.863-6.094 13.927 5.376 17.715 3.226 11.827-6.348-9.164-15.668-44.697-27.444-61.132-19.764zM948.07 597.71c-4.915 1.382-9.472 5.632-10.035 9.728-1.075 5.632-1.485 5.325-2.765-1.485-1.28-6.758-3.686-8.653-11.212-7.27-12.596 1.28-19.456 10.24-9.421 11.468 5.53 0.359 5.222 0.768-2.202 2.868-7.065 1.69-11.827 7.065-15.872 18.176-7.168 17.766-7.475 18.176-12.441 24.678-1.536 2.048-0.87 4.506 2.406 4.403 2.97 0.359 5.58 3.635 4.966 7.015-0.256 3.686-2.406 3.993-4.915 1.382-4.352-5.274-27.853 10.24-33.229 22.272-1.996 4.3-5.222 7.629-7.424 7.168-2.252-0.41-15.206 3.84-29.388 9.728-25.293 10.291-29.85 17.1-10.087 14.848 7.578-0.614 8.397 0 2.867 2.202-3.788 1.587-5.17 5.068-3.123 6.604 7.168 7.424 9.011 10.138 14.234 21.863 4.608 9.984 5.837 10.905 10.496 4.813 2.713-4.352 9.523-10.752 15.206-14.797 8.346-5.837 8.141-7.27 0.512-9.933-8.857-3.584-8.857-3.584 1.485-2.765 15.872 1.178 22.323-10.598 8.858-15.77-10.804-4.403-10.496-4.812 2.918-2.918 8.909 1.024 13.414-0.665 11.827-4.505-3.174-7.63 9.882-16.282 15.77-10.496 11.366 11.264 20.326 13.004 36.454 7.936 22.067-6.964 39.68-34.1 27.904-43.11-3.635-2.817-8.192-9.524-9.881-14.03-1.997-6.656-0.052-5.836 6.912 2.714 8.704 10.547 9.42 10.445 11.264-0.41 0.972-6.348-2.612-16.844-8.244-23.756-10.035-12.186-9.523-19.559 1.23-18.432 7.372 0.46 13.055-6.093 8.191-9.83-2.099-1.486-7.936-1.434-13.26-0.36z m-14.182 31.078c3.43 6.503 3.277 8.346-0.768 5.223-3.226-2.51-7.68-8.5-9.37-13.005-3.584-10.496 2.919-5.53 10.138 7.782z m-7.27 38.912c-8.448 2.56-19.047 7.987-23.245 11.827-7.783 7.578-17.408 9.216-24.32 3.943-2.458-1.843-0.768-3.175 2.918-2.919 3.687 0.256 11.008-2.56 16.64-6.604 7.731-5.018 8.295-9.114 3.482-17.972-6.144-10.496-5.735-10.188 4.608-0.972 12.39 10.803 25.446 7.219 15.82-4.66-3.43-3.942-0.358-2.867 6.913 2.714l12.595 9.677-15.411 4.966z m-8.653 36.608c-0.615 0.82-4.915-1.177-9.78-4.915-4.454-3.43-6.092-7.22-2.56-8.448 4.506-1.69 15.156 9.677 12.34 13.363z m-82.688 32.103c-0.922 1.228-4.096 1.996-7.475 1.33-2.97-0.358-4.352-2.713-2.816-4.76 1.843-2.458 5.478-2.92 7.475-1.332 2.457 1.894 3.481 3.942 2.816 4.762zM504.73 438.886c-51.2 18.842-51.764 58.01-1.28 84.02 20.736 10.752 31.897 9.984 54.579-2.919 29.491-17.766 43.366-62.925 22.784-76.8-18.432-11.827-50.432-13.977-76.083-4.3z m11.673 23.45c-1.28 5.99-18.278 14.387-21.043 10.138-4.454-6.196 6.502-17.972 14.49-16.282 4.044 0.922 7.116 3.686 6.553 6.144zM235.878 330.24c-17.152 14.131-19.763 36.096-5.222 41.318 8.192 3.328 11.827 0.973 17.05-11.008 6.707-14.284 7.936-15.052 22.22-8.345 25.754 11.827 29.338 12.083 33.332 0.87 4.915-13.107-9.421-24.525-36.916-30.464-12.544-2.662-20.326-0.665-30.464 7.629z m482.407-33.894c-15.36-2.458-17.408-1.792-20.787 11.98-3.636 13.056-5.888 14.234-14.183 10.138-7.321-3.635-11.008-1.997-15.309 6.707-5.222 10.547-3.84 12.39 12.647 20.583 26.163 12.953 50.38 4.403 60.365-20.378 7.987-19.507 4.096-24.32-22.733-29.03z" p-id="1800"></path><path d="M518.912 636.416c-4.352 6.195 0.41 9.523 2.202 33.69 1.843 24.73-2.663 28.21 2.508 37.939 6.503 12.339 23.86 26.163 42.445 23.859 23.245-2.816 32-28.672 33.024-31.846 1.69-5.325 1.178-14.234 0-31.847-1.229-18.944-1.945-28.467-4.71-31.846-14.336-17.306-64-16.18-75.469 0.051z" fill="#FF6699" p-id="1801"></path><path d="M670.72 225.28c-12.493 7.424-24.371 23.45-20.48 35.84 6.298 20.224 54.63 31.13 71.68 10.24 8.5-10.445 9.318-28.98 0-40.96-12.032-15.514-36.3-13.926-51.2-5.12zM230.4 240.64c-9.37 8.653-18.227 25.907-10.24 40.96 6.963 13.158 23.142 17.766 35.84 15.36 17.05-3.174 24.576-18.33 25.6-20.48 5.632-11.827 6.81-30.618-5.12-40.96-13.21-11.418-34.509-5.53-46.08 5.12z" fill="#FFFFFF" p-id="1802"></path></svg>