<svg width="16" height="16" viewBox="0 0 1024 1024" fill="none" xmlns="http://www.w3.org/2000/svg">
  <path d="M764.617 891.415l-60.7 60.7c-8.82 8.82-22.906 9.022-31.457 0.504L257.747 530.63c-8.551-8.518-8.35-22.603 0.47-31.423l60.701-60.702c8.854-8.82 22.906-9.055 31.458-0.503L765.12 859.958c8.552 8.552 8.316 22.637-0.504 31.457z m-1.945-728.05L394.98 545.514c-8.485 8.452-22.436 8.25-31.156-0.503l-60.098-60.098c-8.72-8.72-8.953-22.67-0.503-31.122L670.95 71.644c8.452-8.452 22.402-8.25 31.122 0.47l60.098 60.13c8.72 8.72 8.954 22.67 0.502 31.122z" fill="currentColor"/>
</svg>
