<svg viewBox="0 0 1024 1024" xmlns="http://www.w3.org/2000/svg">
  <path
    d="M426.715429 759.442286a51.2 51.2 0 0 1 0 102.4H128.073143a51.2 51.2 0 0 1 0-102.4h298.642286z"
    fill="currentColor"
  />
  <path
    d="M894.756571 418.157714a93.988571 93.988571 0 0 1 75.629715 36.425143l6.875428 10.24c8.338286 14.409143 12.726857 30.72 12.726857 47.323429v255.488a94.134857 94.134857 0 0 1-95.085714 94.208 94.061714 94.061714 0 0 1-47.323428-13.458286v-0.073143L634.587429 720.603429V720.457143a93.988571 93.988571 0 0 1-45.641143-80.530286c0-12.141714 2.340571-24.210286 6.948571-35.401143l5.266286-10.971428 6.729143-10.093715c7.241143-9.654857 16.310857-17.773714 26.770285-24.064L847.725714 431.542857c10.678857-6.363429 22.454857-10.605714 34.742857-12.434286l12.288-0.950857zM699.392 640l188.196571 112.932571V527.067429L699.392 640z"
    fill="currentColor"
  />
  <path
    d="M426.715429 460.8a51.2 51.2 0 0 1 0 102.4H128.073143a51.2 51.2 0 0 1 0-102.4h298.642286zM896.073143 162.157714a51.2 51.2 0 0 1 0 102.4h-768a51.2 51.2 0 0 1 0-102.4h768z"
    fill="currentColor"
  />
</svg>
