<svg width="16" height="16" viewBox="0 0 1024 1024" fill="none" xmlns="http://www.w3.org/2000/svg">
  <path d="M756 588.6c-10.7 0-21.3-4.1-29.4-12.2-16.3-16.3-16.3-42.6 0-58.9l117.8-117.8-216.6-216.4L510 301c-16.3 16.3-42.6 16.3-58.9 0-16.3-16.3-16.3-42.6 0-58.9L572.4 121c15-15 35.2-22.6 56.3-22.7 20.9 0.3 40.5 8.6 55.4 23.5L906 343.6c31 31 31.3 81.1 0.8 111.7L785.4 576.4c-8.1 8.1-18.8 12.2-29.4 12.2z" fill="currentColor" />
  <path d="M746.7 597.9c-10.7 0-21.3-4.1-29.4-12.2L441.9 310.3c-16.3-16.3-16.3-42.6 0-58.9 16.3-16.3 42.6-16.3 58.9 0l275.4 275.4c16.3 16.3 16.3 42.6 0 58.9-8.2 8.2-18.9 12.2-29.5 12.2z" fill="currentColor" />
  <path d="M158.7 930.9c-16.2 0-32-6.5-43.7-18.3-12.9-12.9-19.5-30.5-18.1-48.3l19-247.9c2.1-27.2 13.6-52.5 32.4-71.4l302.8-302.8c16.3-16.3 42.6-16.3 58.9 0 16.3 16.3 16.3 42.6 0 58.9L207.2 603.9c-4.9 4.9-7.7 11.4-8.3 18.8l-17.1 223.1 223-17.1c7.5-0.6 14-3.4 18.9-8.3l302.8-302.8c16.3-16.3 42.6-16.3 58.9 0 16.3 16.3 16.3 42.6 0 58.9L482.6 879.3c-18.9 18.8-44.2 30.4-71.4 32.4l-247.9 19c-1.5 0.2-3.1 0.2-4.6 0.2z" fill="currentColor" />
</svg>
