<svg width="16" height="16" viewBox="0 0 1024 1024" fill="none" xmlns="http://www.w3.org/2000/svg">
  <path d="M450.432 960a48.192 48.192 0 0 1-45.824-33.984l-14.656-47.68a405.184 405.184 0 0 1-50.688-20.864l-44.224 23.296a47.68 47.68 0 0 1-56.32-8.704l-86.848-86.848a47.552 47.552 0 0 1-8.64-56.256l23.488-44.224a379.648 379.648 0 0 1-21.056-50.688l-47.68-14.656A47.872 47.872 0 0 1 64 573.504V450.432a48 48 0 0 1 33.984-45.824l47.68-14.656a379.648 379.648 0 0 1 21.056-50.688l-23.488-44.224a47.68 47.68 0 0 1 8.64-56.32L238.72 151.872a47.68 47.68 0 0 1 56.32-8.64l44.224 23.488a371.584 371.584 0 0 1 50.688-21.056l14.656-47.68A48.128 48.128 0 0 1 450.432 64h123.136a47.872 47.872 0 0 1 45.824 33.984l14.656 47.68a371.584 371.584 0 0 1 50.688 21.056l44.224-23.488a47.68 47.68 0 0 1 56.32 8.64l86.848 86.848a47.68 47.68 0 0 1 8.64 56.32l-23.552 44.224a371.84 371.84 0 0 1 21.12 50.688l47.68 14.656a48 48 0 0 1 33.984 45.824v123.072a47.872 47.872 0 0 1-33.984 45.888l-47.68 14.656a371.84 371.84 0 0 1-21.12 50.688l23.552 44.224a47.552 47.552 0 0 1-8.64 56.256l-86.848 86.848a47.68 47.68 0 0 1-56.32 8.704l-44.224-23.296a405.184 405.184 0 0 1-50.688 20.864l-14.656 47.68a47.936 47.936 0 0 1-45.824 33.984zM364.16 761.6a291.136 291.136 0 0 0 75.84 31.552 47.232 47.232 0 0 1 33.984 32.384l11.904 38.4h52.224l11.904-38.4a47.232 47.232 0 0 1 33.984-32.384 291.136 291.136 0 0 0 75.84-31.552 48.832 48.832 0 0 1 47.04-1.216l35.584 18.88 36.8-36.8-18.88-35.584a48.832 48.832 0 0 1 1.216-47.04 287.616 287.616 0 0 0 31.552-75.84 47.232 47.232 0 0 1 32.384-33.984l38.4-11.904v-52.224l-38.4-11.904a47.232 47.232 0 0 1-32.384-33.984A290.24 290.24 0 0 0 761.6 364.16a48.832 48.832 0 0 1-1.216-47.04l18.88-35.584-36.8-36.8-35.584 18.88a48.832 48.832 0 0 1-47.04-1.216 289.024 289.024 0 0 0-75.84-31.552 47.296 47.296 0 0 1-33.984-32.384l-11.904-38.4h-52.224l-11.904 38.4a47.296 47.296 0 0 1-33.984 32.384A289.024 289.024 0 0 0 364.16 262.4a48.832 48.832 0 0 1-47.04 1.216l-35.584-18.88-36.8 36.8 18.88 35.584a48.832 48.832 0 0 1-1.216 47.04 288 288 0 0 0-31.552 75.84 47.232 47.232 0 0 1-32.384 33.984l-38.4 11.904v52.224l38.4 11.904a47.232 47.232 0 0 1 32.384 33.984A285.568 285.568 0 0 0 262.4 659.84a48.832 48.832 0 0 1 1.216 47.04l-18.88 35.584 36.8 36.8 35.584-18.88a48.576 48.576 0 0 1 47.04 1.216zM304.064 512A207.936 207.936 0 1 1 512 719.936 208.192 208.192 0 0 1 304.064 512z m96 0a112 112 0 1 0 112-112A112.128 112.128 0 0 0 400 512z" fill="currentColor" />
</svg>
