<svg width="16" height="16" viewBox="0 0 24 24" fill="none" xmlns="http://www.w3.org/2000/svg">
  <path d="M10 10L13.7 4.8C14.2 4.1 15.3 4.45 15.3 5.3V9H18.05C19.25 9 20.14 10.12 19.86 11.29L18.6 16.59C18.38 17.53 17.54 18.2 16.58 18.2H10.2C9.54 18.2 9 17.66 9 17V11.2C9 10.54 9.54 10 10.2 10H10Z" stroke="currentColor" stroke-width="1.7" stroke-linejoin="round"/>
  <path d="M4 10.5H7V18.2H4.8C4.36 18.2 4 17.84 4 17.4V11.3C4 10.86 4.36 10.5 4.8 10.5H4Z" stroke="currentColor" stroke-width="1.7" stroke-linejoin="round"/>
</svg>
