<svg width="16" height="16" viewBox="0 0 24 24" fill="none" xmlns="http://www.w3.org/2000/svg">
  <path d="M10 14L13.7 19.2C14.2 19.9 15.3 19.55 15.3 18.7V15H18.05C19.25 15 20.14 13.88 19.86 12.71L18.6 7.41C18.38 6.47 17.54 5.8 16.58 5.8H10.2C9.54 5.8 9 6.34 9 7V12.8C9 13.46 9.54 14 10.2 14H10Z" stroke="currentColor" stroke-width="1.7" stroke-linejoin="round"/>
  <path d="M4 5.8H7V13.5H4.8C4.36 13.5 4 13.14 4 12.7V6.6C4 6.16 4.36 5.8 4.8 5.8H4Z" stroke="currentColor" stroke-width="1.7" stroke-linejoin="round"/>
</svg>
